<svg xmlns="http://www.w3.org/2000/svg" viewBox="-100 -100 200 200">
  <defs>
    <radialGradient id="sBody" cx="0.35" cy="0.35" r="0.85">
      <stop offset="0%" stop-color="#ffe6b5"/>
      <stop offset="45%" stop-color="#e8b16a"/>
      <stop offset="85%" stop-color="#8a5a2b"/>
      <stop offset="100%" stop-color="#3a2410"/>
    </radialGradient>
    <linearGradient id="sBand" x1="0" y1="0" x2="0" y2="1">
      <stop offset="0%" stop-color="#caa06a" stop-opacity="0"/>
      <stop offset="50%" stop-color="#caa06a" stop-opacity="0.55"/>
      <stop offset="100%" stop-color="#caa06a" stop-opacity="0"/>
    </linearGradient>
    <linearGradient id="sRing" x1="0" y1="0" x2="1" y2="0">
      <stop offset="0%" stop-color="#7a5a30" stop-opacity="0.2"/>
      <stop offset="25%" stop-color="#f0d9a8" stop-opacity="0.95"/>
      <stop offset="50%" stop-color="#e8b574" stop-opacity="1"/>
      <stop offset="75%" stop-color="#f0d9a8" stop-opacity="0.95"/>
      <stop offset="100%" stop-color="#7a5a30" stop-opacity="0.2"/>
    </linearGradient>
    <clipPath id="ringBackClip">
      <rect x="-100" y="-100" width="200" height="100"/>
    </clipPath>
    <clipPath id="ringFrontClip">
      <rect x="-100" y="0" width="200" height="100"/>
    </clipPath>
  </defs>
  <g transform="rotate(-18)">
    <g clip-path="url(#ringBackClip)">
      <ellipse cx="0" cy="0" rx="92" ry="22" fill="none" stroke="url(#sRing)" stroke-width="9"/>
      <ellipse cx="0" cy="0" rx="78" ry="18" fill="none" stroke="#3a2410" stroke-width="2" opacity="0.55"/>
      <ellipse cx="0" cy="0" rx="70" ry="16" fill="none" stroke="url(#sRing)" stroke-width="4" opacity="0.8"/>
    </g>
    <circle cx="0" cy="0" r="46" fill="url(#sBody)"/>
    <ellipse cx="0" cy="-10" rx="44" ry="6" fill="url(#sBand)"/>
    <ellipse cx="0" cy="6" rx="45" ry="5" fill="url(#sBand)" opacity="0.7"/>
    <ellipse cx="0" cy="18" rx="42" ry="4" fill="url(#sBand)" opacity="0.5"/>
    <ellipse cx="-14" cy="-16" rx="14" ry="5" fill="#fff1c8" opacity="0.25"/>
    <g clip-path="url(#ringFrontClip)">
      <ellipse cx="0" cy="0" rx="92" ry="22" fill="none" stroke="url(#sRing)" stroke-width="9"/>
      <ellipse cx="0" cy="0" rx="78" ry="18" fill="none" stroke="#3a2410" stroke-width="2" opacity="0.55"/>
      <ellipse cx="0" cy="0" rx="70" ry="16" fill="none" stroke="url(#sRing)" stroke-width="4" opacity="0.8"/>
    </g>
  </g>
</svg>